<?xml version="1.0" encoding="utf-8"?>
<!-- Generator: Adobe Illustrator 26.0.1, SVG Export Plug-In . SVG Version: 6.00 Build 0)  -->
<svg version="1.1" id="Layer_1" xmlns="http://www.w3.org/2000/svg" xmlns:xlink="http://www.w3.org/1999/xlink" x="0px" y="0px"
	 viewBox="0 0 226.77 226.77" style="enable-background:new 0 0 226.77 226.77;" xml:space="preserve">
<style type="text/css">
	.st0{fill:#E43725;}
	.st1{fill:#EBAC20;}
	.st2{fill:#93B0C8;}
	.st3{fill:#6B5A9D;}
	.st4{fill:#9EBE3B;}
	.st5{fill:#6A8E42;}
	.st6{fill:#E43727;}
</style>
<g>
	<g>
		<path class="st0" d="M112.46,88.18c-0.38-17.71,6.98-31.41,21.9-40.82c7.91-4.99,16.69-8.39,25.15-12.38
			c3.09-1.46,6.24-2.79,9.32-4.26c1.09-0.52,1.53-0.6,1.56,0.88c0.1,5.82,0.13,5.8-5.12,8.22c-8.37,3.87-16.79,7.66-25.08,11.7
			c-12.69,6.18-21.86,15.58-26.05,29.35C113.4,83.28,113.03,85.75,112.46,88.18z"/>
		<path class="st1" d="M112.48,105.82c-0.47-11.88,2.92-22.49,10.77-31.6c5.06-5.87,11.28-10.09,18.3-13.29
			c5.78-2.63,11.47-5.44,17.21-8.16c1.82-0.86,1.85-0.83,1.86,1.15c0,0.24,0,0.48,0,0.72c0,5.02-0.07,4.86-4.65,6.94
			c-7.14,3.24-14.41,6.25-21.11,10.36C122.18,79.73,114.62,90.96,112.48,105.82z"/>
		<path class="st0" d="M150.9,73.9c0,2.3-0.06,4.33,0.02,6.36c0.05,1.16-0.79,1.35-1.51,1.7c-5.15,2.55-10.53,4.66-15.36,7.82
			c-11.4,7.48-18.85,17.66-21.05,31.33c-0.1,0.64-0.25,1.28-0.39,1.92c-0.01,0.04-0.09,0.07-0.21,0.15
			c-0.48-10.9,2.38-20.75,9.02-29.38c4.82-6.26,10.8-11.16,18.01-14.5C143.18,77.58,146.79,75.58,150.9,73.9z"/>
		<path class="st2" d="M112.63,140.14c-0.57-11.3,2.6-21.37,9.77-30.12c4.63-5.65,10.29-9.98,16.82-13.21c1.94-0.96,1.73-0.93,2,1.1
			c0.52,3.82-0.73,5.9-4.4,7.81c-10.28,5.35-17.59,13.66-21.73,24.61c-0.98,2.58-1.63,5.25-2.07,7.97
			C112.93,138.92,112.77,139.53,112.63,140.14z"/>
		<g>
			<path class="st2" d="M109.24,88.18c0.38-17.71-6.98-31.41-21.9-40.82c-7.91-4.99-16.69-8.39-25.15-12.38
				c-3.09-1.46-6.24-2.79-9.32-4.26c-1.09-0.52-1.53-0.6-1.56,0.88c-0.1,5.82-0.13,5.8,5.12,8.22c8.37,3.87,16.79,7.66,25.08,11.7
				c12.69,6.18,21.86,15.58,26.05,29.35C108.3,83.28,108.67,85.75,109.24,88.18z"/>
			<path class="st3" d="M109.22,105.82c0.47-11.88-2.92-22.49-10.77-31.6c-5.06-5.87-11.28-10.09-18.3-13.29
				c-5.78-2.63-11.47-5.44-17.21-8.16c-1.82-0.86-1.85-0.83-1.86,1.15c0,0.24,0,0.48,0,0.72c0,5.02,0.07,4.86,4.65,6.94
				c7.14,3.24,14.41,6.25,21.11,10.36C99.52,79.73,107.08,90.96,109.22,105.82z"/>
			<path class="st4" d="M70.8,73.9c0,2.3,0.06,4.33-0.02,6.36c-0.05,1.16,0.79,1.35,1.51,1.7c5.15,2.55,10.53,4.66,15.36,7.82
				c11.4,7.48,18.85,17.66,21.05,31.33c0.1,0.64,0.25,1.28,0.39,1.92c0.01,0.04,0.09,0.07,0.21,0.15
				c0.48-10.9-2.38-20.75-9.02-29.38c-4.82-6.26-10.8-11.16-18.01-14.5C78.52,77.58,74.91,75.58,70.8,73.9z"/>
			<path class="st3" d="M109.06,140.14c0.57-11.3-2.6-21.37-9.77-30.12c-4.63-5.65-10.29-9.98-16.82-13.21
				c-1.94-0.96-1.73-0.93-2,1.1c-0.52,3.82,0.73,5.9,4.4,7.81c10.28,5.35,17.59,13.66,21.73,24.61c0.98,2.58,1.63,5.25,2.07,7.97
				C108.77,138.92,108.93,139.53,109.06,140.14z"/>
		</g>
	</g>
	<g>
		<g>
			<path class="st5" d="M52.09,160.85v-15.89h3.02v13.54h12.88v2.35H52.09z"/>
			<path class="st5" d="M73.54,154.98v5.87h-3v-15.89h13.02c3.61,0,4.99,1.56,4.99,3.84v2.35c0,2.28-1.38,3.84-4.99,3.84H73.54z
				 M85.55,148.78c0-0.95-0.63-1.47-1.99-1.47H73.54v5.33h10.02c1.35,0,1.99-0.52,1.99-1.47V148.78z"/>
			<path class="st5" d="M107.1,160.85v-7.22h-13v7.22h-3v-15.89h3v6.32h13v-6.32h3v15.89H107.1z"/>
			<path class="st5" d="M131.87,160.85l-8.19-12.79l-8.33,12.79h-3.34l10.56-15.89h2.19l10.49,15.89H131.87z"/>
			<path class="st5" d="M151.91,154.3v6.54h-3v-15.89h16.34v2.35h-13.34v4.65h12.43v2.35H151.91z"/>
			<path class="st5" d="M167.43,160.85v-15.89h3v15.89H167.43z"/>
			<path class="st5" d="M190.79,160.85l-7.09-6.34l-7.04,6.34h-3.93l9.07-7.94l-9.07-7.94h3.9l7.06,6.36l7.06-6.36h3.86l-9,7.83
				l9.05,8.06H190.79z"/>
		</g>
	</g>
	<g>
		<g>
			<g>
				<path class="st5" d="M46.61,160.63l-8.07-12.61l-8.21,12.61h-3.29l10.41-15.66h2.16l10.34,15.66H46.61z"/>
			</g>
		</g>
		<path class="st6" d="M41.07,158c-1.43-2.85-3.6-4.89-6.58-6.05c-1.92-0.75-3.91-1.03-5.96-0.91c-0.61,0.03-0.55,0.01-0.34,0.55
			c0.4,1.01,1,1.35,2.16,1.31c3.27-0.11,6.22,0.92,8.75,3.03c0.6,0.5,1.13,1.06,1.61,1.67C40.83,157.74,40.95,157.87,41.07,158z"/>
	</g>
</g>
<g>
	<g>
		<g>
			<path class="st3" d="M42.71,171.22l0.03,1.31h-3.58c-0.04-0.07-0.08-0.16-0.11-0.27c-0.03-0.11-0.05-0.23-0.05-0.37
				c0-0.23,0.05-0.4,0.15-0.51c0.1-0.11,0.24-0.17,0.42-0.17H42.71z M41.32,172.19h1.6v6.73c-0.07,0.03-0.17,0.05-0.31,0.07
				c-0.14,0.02-0.28,0.03-0.43,0.03c-0.31,0-0.54-0.06-0.67-0.17c-0.13-0.11-0.2-0.31-0.2-0.58V172.19z M41.58,172.53l-0.04-1.31
				h3.58c0.04,0.06,0.08,0.15,0.11,0.26c0.03,0.11,0.05,0.24,0.05,0.36c0,0.22-0.05,0.39-0.15,0.51c-0.1,0.12-0.24,0.18-0.42,0.18
				H41.58z"/>
			<path class="st3" d="M48.13,176.32l-1.58-0.01v-4.24c0-0.26,0.08-0.47,0.24-0.62c0.16-0.15,0.37-0.23,0.63-0.23
				c0.14,0,0.28,0.01,0.42,0.04s0.23,0.05,0.29,0.06V176.32z M46.55,173.83h1.58v5.03c-0.06,0.02-0.16,0.04-0.29,0.06
				s-0.28,0.04-0.42,0.04c-0.26,0-0.47-0.08-0.63-0.24c-0.16-0.16-0.24-0.36-0.24-0.62V173.83z M47.42,172.52v-1.3h4.21
				c0.04,0.06,0.08,0.14,0.11,0.25c0.03,0.11,0.05,0.23,0.05,0.36c0,0.22-0.05,0.39-0.15,0.51c-0.1,0.12-0.24,0.18-0.43,0.18H47.42z
				 M47.42,175.63v-1.27h3.83c0.04,0.06,0.08,0.14,0.12,0.25s0.06,0.23,0.06,0.36c0,0.22-0.05,0.39-0.15,0.5
				c-0.1,0.11-0.24,0.17-0.42,0.17H47.42z M47.42,178.96v-1.29h4.28c0.03,0.06,0.07,0.14,0.11,0.25s0.06,0.23,0.06,0.37
				c0,0.22-0.05,0.39-0.15,0.5c-0.1,0.11-0.24,0.17-0.42,0.17H47.42z"/>
			<path class="st3" d="M59.27,172.2c0,0.16-0.04,0.3-0.13,0.43c-0.09,0.12-0.19,0.22-0.31,0.29c-0.21-0.14-0.46-0.28-0.74-0.39
				c-0.28-0.12-0.62-0.18-1.03-0.18c-0.48,0-0.89,0.1-1.25,0.31c-0.36,0.21-0.64,0.52-0.84,0.93c-0.2,0.41-0.3,0.91-0.3,1.51
				c0,0.9,0.22,1.58,0.67,2.04c0.45,0.46,1.05,0.69,1.79,0.69c0.4,0,0.74-0.05,1.03-0.17c0.29-0.11,0.54-0.24,0.75-0.38
				c0.11,0.07,0.21,0.17,0.29,0.3c0.08,0.13,0.12,0.28,0.12,0.44c0,0.14-0.04,0.28-0.11,0.39c-0.07,0.12-0.2,0.22-0.38,0.32
				c-0.18,0.1-0.42,0.2-0.73,0.28s-0.7,0.13-1.16,0.13c-0.73,0-1.39-0.15-1.99-0.44s-1.07-0.74-1.42-1.34
				c-0.35-0.6-0.52-1.36-0.52-2.27c0-0.89,0.17-1.64,0.52-2.24c0.35-0.6,0.81-1.06,1.4-1.37s1.23-0.46,1.92-0.46
				c0.49,0,0.92,0.06,1.28,0.17c0.36,0.11,0.64,0.25,0.84,0.43C59.17,171.79,59.27,171.99,59.27,172.2z"/>
			<path class="st3" d="M62.41,175.7h-1.62v-4.48c0.08-0.02,0.18-0.04,0.32-0.06c0.14-0.03,0.28-0.04,0.43-0.04
				c0.31,0,0.53,0.05,0.66,0.16c0.14,0.11,0.2,0.3,0.2,0.59V175.7z M60.79,173.85h1.62v5.06c-0.07,0.03-0.17,0.05-0.31,0.07
				c-0.14,0.02-0.29,0.03-0.44,0.03c-0.31,0-0.53-0.06-0.66-0.17c-0.14-0.11-0.2-0.31-0.2-0.58V173.85z M66.54,175.7h-4.96v-1.29
				h4.96V175.7z M67.26,175.7h-1.6v-4.48c0.07-0.02,0.17-0.04,0.31-0.06c0.14-0.03,0.28-0.04,0.43-0.04c0.31,0,0.53,0.06,0.66,0.17
				c0.14,0.11,0.2,0.31,0.2,0.6V175.7z M65.65,173.85h1.6v5.06c-0.07,0.03-0.17,0.05-0.31,0.07c-0.14,0.02-0.28,0.03-0.43,0.03
				c-0.31,0-0.54-0.06-0.67-0.17c-0.13-0.11-0.2-0.31-0.2-0.58V173.85z"/>
			<path class="st3" d="M75.78,176.68v-0.8v2.86c-0.1,0.08-0.24,0.15-0.41,0.21c-0.17,0.05-0.36,0.08-0.59,0.08
				c-0.26,0-0.5-0.04-0.71-0.13c-0.21-0.08-0.38-0.27-0.53-0.56L71.68,175c-0.1-0.2-0.21-0.42-0.32-0.64
				c-0.11-0.22-0.22-0.44-0.32-0.65c-0.1-0.21-0.2-0.41-0.28-0.59l-1.53,0.36v-2c0.09-0.12,0.23-0.21,0.41-0.27
				c0.18-0.06,0.38-0.09,0.59-0.09c0.25,0,0.49,0.04,0.7,0.13c0.21,0.08,0.39,0.27,0.53,0.55l1.87,3.35
				c0.11,0.2,0.22,0.42,0.34,0.64c0.11,0.22,0.22,0.44,0.32,0.65c0.1,0.21,0.18,0.41,0.26,0.58L75.78,176.68z M69.23,172.94
				l1.44-0.04c0.03,0.32,0.06,0.66,0.08,1.02c0.02,0.36,0.03,0.71,0.04,1.06c0,0.35,0.01,0.68,0.01,1v2.95
				c-0.06,0.02-0.16,0.04-0.3,0.06c-0.14,0.02-0.28,0.03-0.41,0.03c-0.31,0-0.52-0.05-0.66-0.16c-0.13-0.11-0.2-0.29-0.2-0.57
				V172.94z M75.78,177.2l-1.45,0.04c-0.07-0.65-0.11-1.29-0.11-1.92c-0.01-0.62-0.01-1.23-0.01-1.81v-2.29
				c0.08-0.02,0.18-0.04,0.31-0.06c0.13-0.03,0.27-0.04,0.43-0.04c0.3,0,0.51,0.06,0.64,0.17c0.13,0.11,0.2,0.3,0.2,0.56V177.2z"/>
			<path class="st3" d="M79.36,175.7h-1.6v-4.48c0.07-0.02,0.17-0.04,0.32-0.06s0.29-0.04,0.43-0.04c0.3,0,0.51,0.05,0.65,0.16
				c0.14,0.11,0.2,0.3,0.2,0.59V175.7z M77.75,173.84h1.6v5.08c-0.07,0.03-0.17,0.05-0.31,0.07c-0.14,0.02-0.28,0.03-0.43,0.03
				c-0.31,0-0.53-0.06-0.66-0.17c-0.14-0.11-0.2-0.31-0.2-0.58V173.84z"/>
			<path class="st3" d="M87.2,172.2c0,0.16-0.04,0.3-0.13,0.43c-0.09,0.12-0.19,0.22-0.31,0.29c-0.21-0.14-0.46-0.28-0.74-0.39
				c-0.28-0.12-0.62-0.18-1.03-0.18c-0.48,0-0.89,0.1-1.25,0.31c-0.36,0.21-0.64,0.52-0.84,0.93c-0.2,0.41-0.3,0.91-0.3,1.51
				c0,0.9,0.22,1.58,0.67,2.04c0.45,0.46,1.05,0.69,1.79,0.69c0.4,0,0.74-0.05,1.03-0.17c0.29-0.11,0.54-0.24,0.75-0.38
				c0.11,0.07,0.21,0.17,0.29,0.3c0.08,0.13,0.12,0.28,0.12,0.44c0,0.14-0.04,0.28-0.11,0.39c-0.07,0.12-0.2,0.22-0.38,0.32
				c-0.18,0.1-0.42,0.2-0.73,0.28s-0.7,0.13-1.16,0.13c-0.73,0-1.39-0.15-1.99-0.44s-1.07-0.74-1.42-1.34
				c-0.35-0.6-0.52-1.36-0.52-2.27c0-0.89,0.17-1.64,0.52-2.24c0.35-0.6,0.81-1.06,1.4-1.37s1.23-0.46,1.92-0.46
				c0.49,0,0.92,0.06,1.28,0.17c0.36,0.11,0.64,0.25,0.84,0.43C87.1,171.79,87.2,171.99,87.2,172.2z"/>
			<path class="st3" d="M91.68,172.53h-0.06c-0.11,0.3-0.23,0.65-0.36,1.04c-0.13,0.39-0.27,0.8-0.41,1.22
				c-0.14,0.42-0.28,0.83-0.41,1.21l-0.18,0.79c-0.05,0.16-0.1,0.34-0.16,0.53s-0.11,0.39-0.18,0.59c-0.06,0.2-0.12,0.39-0.18,0.57
				c-0.06,0.18-0.1,0.33-0.15,0.47c-0.08,0.03-0.18,0.05-0.27,0.07c-0.1,0.02-0.21,0.03-0.35,0.03c-0.27,0-0.49-0.05-0.64-0.16
				c-0.16-0.11-0.24-0.26-0.24-0.48c0-0.09,0.01-0.19,0.04-0.29s0.06-0.22,0.1-0.34c0.08-0.28,0.2-0.63,0.34-1.05
				c0.14-0.42,0.3-0.88,0.47-1.37c0.17-0.49,0.35-0.99,0.53-1.49c0.18-0.5,0.35-0.97,0.52-1.41c0.16-0.44,0.3-0.8,0.42-1.1
				c0.1-0.06,0.26-0.11,0.47-0.17c0.21-0.05,0.43-0.08,0.65-0.08c0.29,0,0.55,0.04,0.79,0.13c0.24,0.08,0.39,0.22,0.45,0.41
				c0.18,0.47,0.37,1,0.57,1.6c0.2,0.6,0.41,1.23,0.62,1.88s0.42,1.29,0.61,1.91c0.2,0.62,0.37,1.18,0.52,1.68
				c-0.08,0.09-0.2,0.17-0.35,0.23s-0.32,0.09-0.52,0.09c-0.28,0-0.48-0.05-0.6-0.16c-0.12-0.11-0.22-0.27-0.29-0.49l-0.52-1.67
				l-0.17-0.81c-0.14-0.43-0.27-0.86-0.4-1.28c-0.13-0.42-0.26-0.81-0.38-1.18C91.86,173.11,91.76,172.79,91.68,172.53z
				 M89.54,177.1l0.6-1.26h3.18l0.24,1.26H89.54z"/>
			<path class="st3" d="M98.09,175.7h-1.62v-4.48c0.08-0.02,0.18-0.04,0.32-0.06c0.14-0.03,0.28-0.04,0.43-0.04
				c0.31,0,0.53,0.05,0.66,0.16c0.14,0.11,0.2,0.3,0.2,0.59V175.7z M96.47,173.89h1.62v4.96l-0.75,0.1c-0.26,0-0.47-0.08-0.63-0.24
				c-0.16-0.16-0.24-0.36-0.24-0.62V173.89z M97.34,178.96v-1.32h4.05c0.05,0.07,0.1,0.16,0.13,0.27s0.06,0.23,0.06,0.37
				c0,0.23-0.05,0.4-0.16,0.52s-0.25,0.17-0.43,0.17H97.34z"/>
			<path class="st3" d="M107.72,177.82c0.49,0,0.86-0.1,1.09-0.3c0.24-0.2,0.36-0.45,0.36-0.74c0-0.26-0.09-0.48-0.27-0.64
				c-0.18-0.16-0.46-0.3-0.83-0.42l-0.83-0.25c-0.42-0.14-0.8-0.31-1.11-0.48c-0.32-0.18-0.56-0.41-0.74-0.69
				c-0.17-0.28-0.26-0.63-0.26-1.05c0-0.69,0.26-1.23,0.77-1.63c0.51-0.4,1.22-0.6,2.11-0.6c0.48,0,0.9,0.05,1.27,0.15
				s0.66,0.23,0.88,0.4c0.22,0.17,0.32,0.37,0.32,0.6c0,0.16-0.04,0.3-0.12,0.43s-0.18,0.22-0.3,0.3c-0.2-0.14-0.46-0.27-0.8-0.38
				c-0.34-0.11-0.71-0.16-1.11-0.16c-0.44,0-0.78,0.08-1.02,0.24c-0.24,0.16-0.36,0.38-0.36,0.65c0,0.22,0.08,0.4,0.25,0.54
				s0.42,0.25,0.76,0.36l0.74,0.22c0.73,0.22,1.3,0.52,1.71,0.9c0.41,0.38,0.61,0.89,0.61,1.55c0,0.7-0.27,1.26-0.8,1.69
				s-1.29,0.65-2.27,0.65c-0.52,0-0.98-0.05-1.37-0.17c-0.4-0.11-0.71-0.26-0.95-0.46c-0.23-0.2-0.35-0.42-0.35-0.66
				c0-0.19,0.06-0.35,0.18-0.48c0.12-0.14,0.25-0.24,0.38-0.31c0.22,0.19,0.5,0.36,0.85,0.52
				C106.85,177.74,107.25,177.82,107.72,177.82z"/>
			<path class="st3" d="M113.87,176.32l-1.58-0.01v-4.24c0-0.26,0.08-0.47,0.24-0.62c0.16-0.15,0.37-0.23,0.63-0.23
				c0.14,0,0.28,0.01,0.42,0.04s0.23,0.05,0.29,0.06V176.32z M112.29,173.83h1.58v5.03c-0.06,0.02-0.16,0.04-0.29,0.06
				s-0.28,0.04-0.42,0.04c-0.26,0-0.47-0.08-0.63-0.24c-0.16-0.16-0.24-0.36-0.24-0.62V173.83z M113.15,172.52v-1.3h4.21
				c0.04,0.06,0.08,0.14,0.12,0.25c0.03,0.11,0.05,0.23,0.05,0.36c0,0.22-0.05,0.39-0.15,0.51c-0.1,0.12-0.24,0.18-0.43,0.18H113.15
				z M113.15,175.63v-1.27h3.83c0.04,0.06,0.08,0.14,0.12,0.25s0.06,0.23,0.06,0.36c0,0.22-0.05,0.39-0.15,0.5
				c-0.1,0.11-0.24,0.17-0.42,0.17H113.15z M113.15,178.96v-1.29h4.28c0.03,0.06,0.07,0.14,0.11,0.25s0.06,0.23,0.06,0.37
				c0,0.22-0.05,0.39-0.15,0.5c-0.1,0.11-0.24,0.17-0.42,0.17H113.15z"/>
			<path class="st3" d="M121.92,176.22h-2.77v-4.36c0-0.15,0.04-0.27,0.13-0.36s0.21-0.15,0.35-0.2c0.27-0.08,0.59-0.15,0.96-0.19
				c0.37-0.04,0.75-0.06,1.13-0.06c1.12,0,1.96,0.23,2.51,0.69c0.56,0.46,0.83,1.1,0.83,1.9c0,0.51-0.13,0.96-0.39,1.35
				c-0.26,0.39-0.62,0.69-1.09,0.91C123.12,176.11,122.57,176.22,121.92,176.22z M119.15,175.66h1.62v3.26
				c-0.07,0.03-0.17,0.05-0.31,0.07c-0.14,0.02-0.29,0.03-0.44,0.03c-0.3,0-0.53-0.06-0.66-0.17c-0.14-0.11-0.2-0.31-0.2-0.58
				V175.66z M120.75,174.96h1.06c0.5,0,0.9-0.11,1.2-0.33c0.3-0.22,0.45-0.55,0.45-0.98c0-0.42-0.15-0.75-0.45-0.97
				c-0.3-0.22-0.73-0.33-1.31-0.33c-0.17,0-0.33,0.01-0.5,0.02s-0.31,0.03-0.45,0.06V174.96z M121.71,175.81l1.38-0.39
				c0.21,0.28,0.43,0.56,0.66,0.85s0.44,0.56,0.65,0.83s0.39,0.51,0.56,0.73c0.17,0.22,0.29,0.4,0.39,0.55
				c-0.06,0.21-0.17,0.38-0.34,0.5c-0.17,0.12-0.35,0.18-0.54,0.18c-0.25,0-0.45-0.06-0.59-0.17c-0.14-0.11-0.27-0.27-0.4-0.46
				L121.71,175.81z"/>
			<path class="st3" d="M130.7,178.76c-0.08,0.07-0.21,0.13-0.39,0.18c-0.18,0.05-0.38,0.08-0.6,0.08c-0.25,0-0.47-0.04-0.66-0.11
				c-0.19-0.07-0.31-0.18-0.38-0.32c-0.13-0.25-0.28-0.58-0.45-0.99s-0.36-0.88-0.56-1.41s-0.4-1.06-0.59-1.61
				c-0.2-0.55-0.38-1.09-0.54-1.62c-0.17-0.53-0.31-1.01-0.43-1.43c0.08-0.09,0.21-0.18,0.37-0.26c0.16-0.08,0.33-0.12,0.52-0.12
				c0.24,0,0.42,0.05,0.56,0.16c0.14,0.11,0.24,0.28,0.31,0.53c0.31,0.98,0.61,1.92,0.9,2.83c0.3,0.91,0.61,1.83,0.94,2.77h0.06
				c0.2-0.58,0.41-1.22,0.63-1.9c0.22-0.68,0.43-1.38,0.64-2.1s0.4-1.43,0.57-2.11c0.1-0.05,0.21-0.09,0.34-0.13
				c0.12-0.03,0.26-0.05,0.4-0.05c0.23,0,0.42,0.06,0.58,0.17c0.16,0.11,0.24,0.28,0.24,0.51c0,0.15-0.04,0.41-0.13,0.76
				c-0.09,0.35-0.21,0.76-0.36,1.23c-0.15,0.47-0.32,0.95-0.5,1.45c-0.18,0.5-0.36,0.99-0.55,1.46s-0.36,0.89-0.52,1.25
				C130.93,178.33,130.8,178.59,130.7,178.76z"/>
			<path class="st3" d="M136.11,175.7h-1.6v-4.48c0.07-0.02,0.17-0.04,0.32-0.06s0.29-0.04,0.43-0.04c0.3,0,0.51,0.05,0.65,0.16
				c0.14,0.11,0.2,0.3,0.2,0.59V175.7z M134.51,173.84h1.6v5.08c-0.07,0.03-0.17,0.05-0.31,0.07c-0.14,0.02-0.28,0.03-0.43,0.03
				c-0.3,0-0.53-0.06-0.66-0.17c-0.14-0.11-0.2-0.31-0.2-0.58V173.84z"/>
			<path class="st3" d="M143.95,172.2c0,0.16-0.04,0.3-0.13,0.43c-0.09,0.12-0.19,0.22-0.31,0.29c-0.21-0.14-0.46-0.28-0.74-0.39
				c-0.28-0.12-0.62-0.18-1.03-0.18c-0.48,0-0.89,0.1-1.25,0.31c-0.36,0.21-0.64,0.52-0.84,0.93c-0.2,0.41-0.3,0.91-0.3,1.51
				c0,0.9,0.22,1.58,0.67,2.04c0.45,0.46,1.05,0.69,1.79,0.69c0.4,0,0.74-0.05,1.03-0.17c0.29-0.11,0.54-0.24,0.75-0.38
				c0.11,0.07,0.21,0.17,0.29,0.3c0.08,0.13,0.12,0.28,0.12,0.44c0,0.14-0.04,0.28-0.11,0.39c-0.07,0.12-0.2,0.22-0.38,0.32
				c-0.18,0.1-0.42,0.2-0.73,0.28s-0.7,0.13-1.16,0.13c-0.73,0-1.39-0.15-1.99-0.44c-0.6-0.29-1.07-0.74-1.42-1.34
				c-0.35-0.6-0.52-1.36-0.52-2.27c0-0.89,0.17-1.64,0.52-2.24c0.35-0.6,0.81-1.06,1.4-1.37s1.23-0.46,1.92-0.46
				c0.49,0,0.92,0.06,1.28,0.17c0.36,0.11,0.64,0.25,0.84,0.43C143.85,171.79,143.95,171.99,143.95,172.2z"/>
			<path class="st3" d="M147.05,176.32l-1.58-0.01v-4.24c0-0.26,0.08-0.47,0.24-0.62c0.16-0.15,0.37-0.23,0.63-0.23
				c0.14,0,0.28,0.01,0.42,0.04s0.23,0.05,0.29,0.06V176.32z M145.48,173.83h1.58v5.03c-0.06,0.02-0.16,0.04-0.29,0.06
				s-0.28,0.04-0.42,0.04c-0.26,0-0.47-0.08-0.63-0.24c-0.16-0.16-0.24-0.36-0.24-0.62V173.83z M146.34,172.52v-1.3h4.21
				c0.04,0.06,0.08,0.14,0.12,0.25c0.03,0.11,0.05,0.23,0.05,0.36c0,0.22-0.05,0.39-0.15,0.51c-0.1,0.12-0.24,0.18-0.43,0.18H146.34
				z M146.34,175.63v-1.27h3.83c0.04,0.06,0.08,0.14,0.12,0.25s0.06,0.23,0.06,0.36c0,0.22-0.05,0.39-0.15,0.5
				c-0.1,0.11-0.24,0.17-0.42,0.17H146.34z M146.34,178.96v-1.29h4.28c0.03,0.06,0.07,0.14,0.11,0.25s0.06,0.23,0.06,0.37
				c0,0.22-0.05,0.39-0.15,0.5c-0.1,0.11-0.24,0.17-0.42,0.17H146.34z"/>
			<path class="st3" d="M154.59,177.82c0.49,0,0.86-0.1,1.09-0.3s0.36-0.45,0.36-0.74c0-0.26-0.09-0.48-0.27-0.64
				s-0.46-0.3-0.83-0.42l-0.83-0.25c-0.42-0.14-0.8-0.31-1.11-0.48c-0.32-0.18-0.56-0.41-0.74-0.69c-0.17-0.28-0.26-0.63-0.26-1.05
				c0-0.69,0.26-1.23,0.77-1.63c0.51-0.4,1.21-0.6,2.11-0.6c0.48,0,0.9,0.05,1.27,0.15s0.66,0.23,0.88,0.4
				c0.22,0.17,0.32,0.37,0.32,0.6c0,0.16-0.04,0.3-0.12,0.43c-0.08,0.12-0.18,0.22-0.3,0.3c-0.2-0.14-0.46-0.27-0.8-0.38
				c-0.34-0.11-0.71-0.16-1.11-0.16c-0.44,0-0.78,0.08-1.02,0.24s-0.36,0.38-0.36,0.65c0,0.22,0.08,0.4,0.25,0.54
				c0.17,0.14,0.42,0.25,0.76,0.36l0.74,0.22c0.73,0.22,1.3,0.52,1.71,0.9c0.41,0.38,0.61,0.89,0.61,1.55c0,0.7-0.26,1.26-0.79,1.69
				s-1.29,0.65-2.27,0.65c-0.52,0-0.98-0.05-1.37-0.17c-0.4-0.11-0.71-0.26-0.95-0.46s-0.35-0.42-0.35-0.66
				c0-0.19,0.06-0.35,0.18-0.48c0.12-0.14,0.25-0.24,0.38-0.31c0.22,0.19,0.5,0.36,0.85,0.52S154.12,177.82,154.59,177.82z"/>
			<path class="st3" d="M163.32,175.7h-1.62v-4.48c0.08-0.02,0.18-0.04,0.33-0.06c0.14-0.03,0.28-0.04,0.43-0.04
				c0.31,0,0.53,0.05,0.66,0.16c0.14,0.11,0.2,0.3,0.2,0.59V175.7z M161.7,173.89h1.62v4.96l-0.75,0.1c-0.26,0-0.47-0.08-0.63-0.24
				c-0.16-0.16-0.24-0.36-0.24-0.62V173.89z M162.56,178.96v-1.32h4.05c0.05,0.07,0.1,0.16,0.13,0.27s0.06,0.23,0.06,0.37
				c0,0.23-0.05,0.4-0.16,0.52c-0.11,0.11-0.25,0.17-0.43,0.17H162.56z"/>
			<path class="st3" d="M167.41,178.17c0-0.27,0.08-0.5,0.25-0.69s0.4-0.28,0.7-0.28s0.53,0.09,0.7,0.28
				c0.17,0.19,0.25,0.42,0.25,0.69s-0.08,0.5-0.25,0.69c-0.17,0.19-0.4,0.28-0.7,0.28s-0.53-0.09-0.7-0.28
				S167.41,178.44,167.41,178.17z"/>
			<path class="st3" d="M172.16,175.7h-1.62v-4.48c0.08-0.02,0.18-0.04,0.33-0.06c0.14-0.03,0.28-0.04,0.43-0.04
				c0.31,0,0.53,0.05,0.66,0.16c0.14,0.11,0.2,0.3,0.2,0.59V175.7z M170.54,173.89h1.62v4.96l-0.75,0.1c-0.26,0-0.47-0.08-0.63-0.24
				c-0.16-0.16-0.24-0.36-0.24-0.62V173.89z M171.41,178.96v-1.32h4.05c0.05,0.07,0.1,0.16,0.13,0.27s0.06,0.23,0.06,0.37
				c0,0.23-0.05,0.4-0.16,0.52c-0.11,0.11-0.25,0.17-0.43,0.17H171.41z"/>
			<path class="st3" d="M176.26,178.17c0-0.27,0.08-0.5,0.25-0.69s0.4-0.28,0.7-0.28s0.53,0.09,0.7,0.28
				c0.17,0.19,0.25,0.42,0.25,0.69s-0.08,0.5-0.25,0.69c-0.17,0.19-0.4,0.28-0.7,0.28s-0.53-0.09-0.7-0.28
				S176.26,178.44,176.26,178.17z"/>
			<path class="st3" d="M185.24,172.2c0,0.16-0.04,0.3-0.13,0.43c-0.09,0.12-0.19,0.22-0.31,0.29c-0.21-0.14-0.46-0.28-0.74-0.39
				c-0.28-0.12-0.62-0.18-1.03-0.18c-0.48,0-0.89,0.1-1.25,0.31c-0.36,0.21-0.64,0.52-0.84,0.93c-0.2,0.41-0.3,0.91-0.3,1.51
				c0,0.9,0.22,1.58,0.67,2.04c0.45,0.46,1.05,0.69,1.79,0.69c0.4,0,0.74-0.05,1.03-0.17c0.29-0.11,0.54-0.24,0.75-0.38
				c0.11,0.07,0.21,0.17,0.29,0.3c0.08,0.13,0.12,0.28,0.12,0.44c0,0.14-0.04,0.28-0.11,0.39c-0.07,0.12-0.2,0.22-0.38,0.32
				c-0.18,0.1-0.42,0.2-0.73,0.28s-0.7,0.13-1.16,0.13c-0.73,0-1.39-0.15-1.99-0.44c-0.6-0.29-1.07-0.74-1.42-1.34
				c-0.35-0.6-0.52-1.36-0.52-2.27c0-0.89,0.17-1.64,0.52-2.24c0.35-0.6,0.81-1.06,1.4-1.37s1.23-0.46,1.92-0.46
				c0.49,0,0.92,0.06,1.28,0.17c0.36,0.11,0.64,0.25,0.84,0.43C185.14,171.79,185.24,171.99,185.24,172.2z"/>
		</g>
	</g>
</g>
<g>
	<g>
		<g>
			<path class="st0" d="M18.06,188.44v2.04c0,0.15-0.03,0.28-0.1,0.37c-0.07,0.09-0.17,0.17-0.32,0.25
				c-0.17,0.09-0.41,0.17-0.72,0.23c-0.31,0.06-0.62,0.1-0.94,0.1c-0.61,0-1.15-0.11-1.63-0.32c-0.48-0.21-0.85-0.55-1.13-1
				s-0.41-1.03-0.41-1.73c0-0.68,0.14-1.24,0.42-1.7c0.28-0.45,0.66-0.8,1.13-1.03c0.47-0.23,0.99-0.34,1.56-0.34
				c0.38,0,0.72,0.04,1,0.12c0.28,0.08,0.51,0.19,0.66,0.33c0.16,0.13,0.24,0.28,0.24,0.44c0,0.12-0.03,0.23-0.1,0.33
				c-0.07,0.1-0.14,0.17-0.23,0.22c-0.17-0.11-0.38-0.21-0.61-0.3c-0.24-0.09-0.53-0.14-0.87-0.14c-0.37,0-0.71,0.08-1,0.24
				c-0.3,0.16-0.53,0.39-0.7,0.71s-0.25,0.69-0.25,1.13c0,0.47,0.08,0.86,0.25,1.17s0.4,0.53,0.69,0.68s0.63,0.22,1,0.22
				c0.19,0,0.36-0.02,0.51-0.05s0.28-0.07,0.37-0.12v-1.36h-1.25c-0.03-0.04-0.05-0.11-0.08-0.2c-0.03-0.09-0.04-0.17-0.04-0.26
				c0-0.17,0.04-0.3,0.11-0.38c0.08-0.08,0.18-0.12,0.32-0.12h1.61c0.15,0,0.27,0.04,0.36,0.13
				C18.01,188.16,18.06,188.28,18.06,188.44z"/>
			<path class="st0" d="M21.6,186.43h-0.05c-0.08,0.23-0.17,0.49-0.27,0.79c-0.1,0.29-0.2,0.6-0.31,0.92
				c-0.11,0.32-0.21,0.62-0.31,0.92l-0.13,0.6c-0.04,0.12-0.08,0.26-0.12,0.4c-0.04,0.15-0.09,0.3-0.13,0.45
				c-0.05,0.15-0.09,0.29-0.13,0.43s-0.08,0.25-0.11,0.36c-0.06,0.02-0.13,0.04-0.21,0.05c-0.07,0.02-0.16,0.02-0.26,0.02
				c-0.2,0-0.37-0.04-0.48-0.12c-0.12-0.08-0.18-0.2-0.18-0.36c0-0.07,0.01-0.14,0.03-0.22c0.02-0.08,0.05-0.16,0.07-0.26
				c0.06-0.21,0.15-0.47,0.26-0.79c0.11-0.32,0.23-0.66,0.35-1.03s0.26-0.75,0.4-1.12c0.14-0.38,0.27-0.73,0.39-1.06
				c0.12-0.33,0.23-0.61,0.32-0.83c0.08-0.04,0.2-0.09,0.36-0.12c0.16-0.04,0.32-0.06,0.49-0.06c0.22,0,0.42,0.03,0.6,0.1
				c0.18,0.06,0.3,0.17,0.34,0.31c0.13,0.35,0.28,0.75,0.43,1.21c0.15,0.45,0.31,0.93,0.47,1.42c0.16,0.49,0.31,0.97,0.46,1.44
				c0.15,0.47,0.28,0.89,0.39,1.27c-0.06,0.07-0.15,0.13-0.26,0.17c-0.11,0.04-0.24,0.07-0.39,0.07c-0.21,0-0.36-0.04-0.46-0.12
				c-0.09-0.08-0.17-0.2-0.22-0.37l-0.39-1.26l-0.12-0.61c-0.1-0.33-0.2-0.65-0.3-0.96c-0.1-0.32-0.19-0.61-0.28-0.89
				S21.66,186.63,21.6,186.43z M19.99,189.88l0.45-0.95h2.4l0.18,0.95H19.99z"/>
			<path class="st0" d="M27.31,189.21h-2.09v-3.29c0-0.12,0.03-0.2,0.1-0.27c0.07-0.06,0.16-0.12,0.26-0.15
				c0.2-0.06,0.45-0.11,0.72-0.14c0.28-0.03,0.56-0.05,0.85-0.05c0.85,0,1.48,0.17,1.9,0.52c0.42,0.35,0.63,0.83,0.63,1.44
				c0,0.38-0.1,0.72-0.29,1.02c-0.2,0.29-0.47,0.52-0.82,0.69C28.22,189.13,27.8,189.21,27.31,189.21z M25.22,188.79h1.22v2.46
				c-0.05,0.02-0.13,0.04-0.24,0.05c-0.11,0.02-0.22,0.02-0.33,0.02c-0.23,0-0.4-0.04-0.5-0.13c-0.1-0.09-0.15-0.23-0.15-0.44
				V188.79z M26.43,188.26h0.8c0.38,0,0.68-0.08,0.9-0.25c0.22-0.17,0.34-0.41,0.34-0.74c0-0.32-0.11-0.56-0.34-0.73
				c-0.22-0.17-0.55-0.25-0.99-0.25c-0.13,0-0.25,0-0.37,0.01c-0.12,0.01-0.23,0.02-0.34,0.04V188.26z M27.15,188.91l1.04-0.3
				c0.16,0.21,0.32,0.42,0.49,0.64c0.17,0.21,0.33,0.42,0.49,0.62c0.16,0.2,0.3,0.39,0.42,0.55c0.12,0.17,0.22,0.3,0.29,0.41
				c-0.04,0.16-0.13,0.28-0.25,0.37c-0.12,0.09-0.26,0.13-0.41,0.13c-0.19,0-0.34-0.04-0.45-0.13c-0.11-0.09-0.21-0.2-0.3-0.35
				L27.15,188.91z"/>
			<path class="st0" d="M33.22,188.71l0.18-0.68c0.49,0,0.9,0.07,1.23,0.2c0.33,0.13,0.58,0.32,0.74,0.55s0.25,0.51,0.25,0.82
				c0,0.61-0.22,1.06-0.67,1.35c-0.45,0.29-1.08,0.44-1.9,0.44c-0.16,0-0.33,0-0.52-0.01c-0.19-0.01-0.38-0.03-0.57-0.06
				c-0.19-0.03-0.36-0.07-0.52-0.12c-0.31-0.11-0.47-0.3-0.47-0.57v-4.71c0-0.12,0.03-0.21,0.1-0.27c0.07-0.07,0.16-0.12,0.26-0.15
				c0.22-0.07,0.47-0.12,0.76-0.15c0.29-0.03,0.59-0.04,0.89-0.04c0.77,0,1.36,0.13,1.79,0.4s0.63,0.68,0.63,1.23
				c0,0.29-0.08,0.55-0.24,0.77s-0.41,0.39-0.73,0.51c-0.32,0.12-0.73,0.18-1.21,0.18l-0.08-0.58c0.35,0,0.61-0.07,0.79-0.21
				c0.17-0.14,0.26-0.34,0.26-0.6c0-0.25-0.1-0.44-0.3-0.57c-0.2-0.13-0.5-0.2-0.89-0.2c-0.16,0-0.31,0.01-0.46,0.02
				c-0.15,0.01-0.27,0.03-0.37,0.05v4.04c0.12,0.03,0.27,0.05,0.44,0.07s0.34,0.02,0.51,0.02c0.4,0,0.71-0.07,0.94-0.22
				c0.23-0.14,0.34-0.37,0.34-0.67c0-0.28-0.1-0.48-0.3-0.63C33.89,188.79,33.6,188.71,33.22,188.71z M34.07,187.82v0.89h-2.32
				v-0.89H34.07z"/>
			<path class="st0" d="M39.04,186.43H39c-0.08,0.23-0.17,0.49-0.27,0.79c-0.1,0.29-0.2,0.6-0.31,0.92
				c-0.11,0.32-0.21,0.62-0.31,0.92l-0.13,0.6c-0.04,0.12-0.08,0.26-0.12,0.4c-0.04,0.15-0.09,0.3-0.13,0.45
				c-0.05,0.15-0.09,0.29-0.13,0.43s-0.08,0.25-0.11,0.36c-0.06,0.02-0.13,0.04-0.21,0.05c-0.07,0.02-0.16,0.02-0.26,0.02
				c-0.2,0-0.37-0.04-0.48-0.12c-0.12-0.08-0.18-0.2-0.18-0.36c0-0.07,0.01-0.14,0.03-0.22c0.02-0.08,0.05-0.16,0.07-0.26
				c0.06-0.21,0.15-0.47,0.26-0.79c0.11-0.32,0.23-0.66,0.35-1.03s0.26-0.75,0.4-1.12c0.14-0.38,0.27-0.73,0.39-1.06
				c0.12-0.33,0.23-0.61,0.32-0.83c0.08-0.04,0.2-0.09,0.36-0.12c0.16-0.04,0.32-0.06,0.49-0.06c0.22,0,0.42,0.03,0.6,0.1
				c0.18,0.06,0.3,0.17,0.34,0.31c0.13,0.35,0.28,0.75,0.43,1.21c0.15,0.45,0.31,0.93,0.47,1.42c0.16,0.49,0.31,0.97,0.46,1.44
				c0.15,0.47,0.28,0.89,0.39,1.27c-0.06,0.07-0.15,0.13-0.26,0.17c-0.11,0.04-0.24,0.07-0.39,0.07c-0.21,0-0.36-0.04-0.46-0.12
				c-0.09-0.08-0.17-0.2-0.22-0.37l-0.39-1.26l-0.12-0.61c-0.1-0.33-0.2-0.65-0.3-0.96c-0.1-0.32-0.19-0.61-0.28-0.89
				S39.11,186.63,39.04,186.43z M37.43,189.88l0.45-0.95h2.4l0.18,0.95H37.43z"/>
			<path class="st0" d="M47.6,188.44v2.04c0,0.15-0.03,0.28-0.1,0.37c-0.07,0.09-0.17,0.17-0.32,0.25
				c-0.17,0.09-0.41,0.17-0.72,0.23c-0.31,0.06-0.62,0.1-0.94,0.1c-0.61,0-1.15-0.11-1.63-0.32c-0.48-0.21-0.85-0.55-1.13-1
				s-0.41-1.03-0.41-1.73c0-0.68,0.14-1.24,0.42-1.7c0.28-0.45,0.66-0.8,1.13-1.03c0.47-0.23,0.99-0.34,1.56-0.34
				c0.38,0,0.72,0.04,1,0.12c0.28,0.08,0.51,0.19,0.66,0.33c0.16,0.13,0.24,0.28,0.24,0.44c0,0.12-0.03,0.23-0.1,0.33
				c-0.07,0.1-0.14,0.17-0.23,0.22c-0.17-0.11-0.38-0.21-0.61-0.3c-0.24-0.09-0.53-0.14-0.87-0.14c-0.37,0-0.71,0.08-1,0.24
				c-0.3,0.16-0.53,0.39-0.7,0.71s-0.25,0.69-0.25,1.13c0,0.47,0.08,0.86,0.25,1.17s0.4,0.53,0.69,0.68s0.63,0.22,1,0.22
				c0.19,0,0.36-0.02,0.51-0.05s0.28-0.07,0.37-0.12v-1.36h-1.25c-0.03-0.04-0.05-0.11-0.08-0.2c-0.03-0.09-0.04-0.17-0.04-0.26
				c0-0.17,0.04-0.3,0.11-0.38c0.08-0.08,0.18-0.12,0.32-0.12h1.61c0.15,0,0.27,0.04,0.36,0.13
				C47.55,188.16,47.6,188.28,47.6,188.44z"/>
			<path class="st0" d="M50.1,189.29l-1.19-0.01v-3.2c0-0.2,0.06-0.36,0.18-0.47c0.12-0.12,0.28-0.17,0.48-0.17
				c0.11,0,0.21,0.01,0.32,0.03c0.1,0.02,0.18,0.04,0.22,0.05V189.29z M48.91,187.41h1.19v3.79c-0.04,0.01-0.12,0.03-0.22,0.05
				c-0.1,0.02-0.21,0.03-0.32,0.03c-0.2,0-0.36-0.06-0.48-0.18c-0.12-0.12-0.18-0.27-0.18-0.47V187.41z M49.57,186.42v-0.98h3.18
				c0.03,0.04,0.06,0.11,0.09,0.19c0.03,0.08,0.04,0.17,0.04,0.27c0,0.17-0.04,0.29-0.11,0.38s-0.18,0.13-0.32,0.13H49.57z
				 M49.57,188.77v-0.96h2.89c0.03,0.04,0.06,0.11,0.09,0.19s0.04,0.17,0.04,0.27c0,0.17-0.04,0.29-0.12,0.37
				c-0.08,0.08-0.18,0.12-0.32,0.12H49.57z M49.57,191.28v-0.97h3.23c0.03,0.04,0.05,0.11,0.08,0.19c0.03,0.08,0.04,0.18,0.04,0.28
				c0,0.17-0.04,0.29-0.12,0.37c-0.08,0.08-0.18,0.12-0.32,0.12H49.57z"/>
			<path class="st0" d="M60.42,186.18c0,0.12-0.03,0.23-0.1,0.32c-0.07,0.09-0.15,0.17-0.24,0.22c-0.16-0.11-0.35-0.21-0.56-0.3
				c-0.21-0.09-0.47-0.13-0.78-0.13c-0.36,0-0.67,0.08-0.95,0.24c-0.27,0.16-0.48,0.39-0.63,0.7c-0.15,0.31-0.23,0.69-0.23,1.14
				c0,0.68,0.17,1.19,0.51,1.54c0.34,0.35,0.79,0.52,1.35,0.52c0.3,0,0.56-0.04,0.78-0.12c0.22-0.08,0.41-0.18,0.57-0.29
				c0.08,0.05,0.16,0.13,0.22,0.23c0.06,0.1,0.09,0.21,0.09,0.33c0,0.11-0.03,0.21-0.08,0.3c-0.05,0.09-0.15,0.17-0.28,0.24
				c-0.13,0.08-0.32,0.15-0.55,0.21c-0.23,0.06-0.53,0.1-0.88,0.1c-0.55,0-1.05-0.11-1.5-0.33s-0.81-0.56-1.07-1.01
				c-0.26-0.45-0.39-1.02-0.39-1.71c0-0.67,0.13-1.23,0.39-1.69c0.26-0.45,0.61-0.8,1.06-1.03c0.44-0.23,0.92-0.35,1.45-0.35
				c0.37,0,0.69,0.04,0.96,0.12c0.27,0.08,0.48,0.19,0.63,0.33C60.35,185.87,60.42,186.02,60.42,186.18z"/>
			<path class="st0" d="M62.79,188.82h-1.22v-3.38c0.06-0.01,0.14-0.03,0.24-0.05c0.11-0.02,0.21-0.03,0.32-0.03
				c0.23,0,0.4,0.04,0.5,0.12s0.15,0.23,0.15,0.45V188.82z M61.58,187.43h1.22v3.82c-0.05,0.02-0.13,0.04-0.24,0.05
				c-0.11,0.02-0.22,0.02-0.33,0.02c-0.23,0-0.4-0.04-0.5-0.13c-0.1-0.09-0.15-0.23-0.15-0.44V187.43z M65.91,188.82h-3.74v-0.97
				h3.74V188.82z M66.45,188.82h-1.21v-3.38c0.05-0.01,0.13-0.03,0.24-0.05c0.11-0.02,0.21-0.03,0.32-0.03c0.23,0,0.4,0.04,0.5,0.12
				s0.15,0.23,0.15,0.45V188.82z M65.24,187.43h1.21v3.82c-0.05,0.02-0.13,0.04-0.24,0.05c-0.11,0.02-0.21,0.02-0.32,0.02
				c-0.24,0-0.4-0.04-0.5-0.13c-0.1-0.09-0.15-0.23-0.15-0.44V187.43z"/>
			<path class="st0" d="M69.14,188.84h-1.21v-3.4c0.05-0.01,0.13-0.03,0.24-0.05c0.11-0.02,0.21-0.03,0.32-0.03
				c0.23,0,0.4,0.04,0.5,0.12c0.1,0.08,0.15,0.23,0.15,0.45V188.84z M70.35,191.41c-0.51,0-0.94-0.09-1.31-0.27
				c-0.36-0.18-0.64-0.44-0.83-0.77s-0.28-0.72-0.28-1.17v-0.69h1.21v0.64c0,0.41,0.11,0.73,0.34,0.95
				c0.23,0.22,0.52,0.33,0.87,0.33c0.35,0,0.63-0.11,0.86-0.33s0.35-0.54,0.35-0.95v-0.64h1.22v0.69c0,0.45-0.1,0.84-0.29,1.17
				s-0.47,0.59-0.83,0.77C71.3,191.32,70.86,191.41,70.35,191.41z M72.78,188.85h-1.22v-3.41c0.05-0.01,0.13-0.03,0.24-0.05
				c0.11-0.02,0.22-0.03,0.33-0.03c0.22,0,0.39,0.04,0.49,0.12c0.11,0.08,0.16,0.23,0.16,0.45V188.85z"/>
			<path class="st0" d="M76.51,185.44l0.02,0.99h-2.7c-0.03-0.05-0.06-0.12-0.09-0.2s-0.04-0.18-0.04-0.28
				c0-0.17,0.04-0.3,0.11-0.38c0.08-0.08,0.18-0.12,0.32-0.12H76.51z M75.47,186.17h1.21v5.08c-0.05,0.02-0.13,0.04-0.24,0.05
				c-0.11,0.02-0.21,0.02-0.32,0.02c-0.24,0-0.4-0.04-0.5-0.13c-0.1-0.09-0.15-0.23-0.15-0.44V186.17z M75.66,186.43l-0.03-0.99h2.7
				c0.03,0.04,0.06,0.11,0.09,0.2c0.03,0.09,0.04,0.18,0.04,0.27c0,0.17-0.04,0.29-0.12,0.38s-0.18,0.13-0.32,0.13H75.66z"/>
			<path class="st0" d="M80.6,189.29l-1.19-0.01v-3.2c0-0.2,0.06-0.36,0.18-0.47c0.12-0.12,0.28-0.17,0.48-0.17
				c0.11,0,0.21,0.01,0.32,0.03c0.1,0.02,0.18,0.04,0.22,0.05V189.29z M79.41,187.41h1.19v3.79c-0.04,0.01-0.12,0.03-0.22,0.05
				c-0.1,0.02-0.21,0.03-0.32,0.03c-0.2,0-0.36-0.06-0.48-0.18c-0.12-0.12-0.18-0.27-0.18-0.47V187.41z M80.06,186.42v-0.98h3.18
				c0.03,0.04,0.06,0.11,0.09,0.19c0.03,0.08,0.04,0.17,0.04,0.27c0,0.17-0.04,0.29-0.11,0.38s-0.18,0.13-0.32,0.13H80.06z
				 M80.06,188.77v-0.96h2.89c0.03,0.04,0.06,0.11,0.09,0.19s0.04,0.17,0.04,0.27c0,0.17-0.04,0.29-0.12,0.37
				c-0.08,0.08-0.18,0.12-0.32,0.12H80.06z M80.06,191.28v-0.97h3.23c0.03,0.04,0.05,0.11,0.08,0.19c0.03,0.08,0.04,0.18,0.04,0.28
				c0,0.17-0.04,0.29-0.12,0.37c-0.08,0.08-0.18,0.12-0.32,0.12H80.06z"/>
			<path class="st0" d="M90.86,190.22l-0.45,0.43c-0.24,0.25-0.53,0.44-0.87,0.57c-0.34,0.13-0.7,0.19-1.09,0.19
				c-0.47,0-0.87-0.08-1.21-0.24s-0.6-0.39-0.78-0.68c-0.18-0.29-0.27-0.63-0.27-1c0-0.33,0.07-0.61,0.2-0.85
				c0.13-0.24,0.3-0.44,0.52-0.61s0.45-0.28,0.71-0.36l0.54,0.76c-0.15,0.04-0.28,0.1-0.4,0.19c-0.12,0.09-0.22,0.2-0.3,0.34
				c-0.08,0.13-0.12,0.29-0.12,0.48c0,0.31,0.1,0.56,0.31,0.75c0.21,0.2,0.49,0.29,0.86,0.29c0.18,0,0.39-0.04,0.62-0.12
				c0.23-0.08,0.45-0.22,0.66-0.44l0.35-0.53c0.1-0.21,0.17-0.46,0.21-0.75s0.06-0.58,0.06-0.88c0.09-0.04,0.18-0.07,0.26-0.09
				c0.08-0.02,0.16-0.03,0.24-0.03c0.21,0,0.36,0.06,0.44,0.18s0.12,0.28,0.12,0.47c0,0.31-0.05,0.64-0.14,0.98
				C91.2,189.63,91.06,189.94,90.86,190.22z M91.19,191.4c-0.19,0-0.37-0.1-0.56-0.29l-2.82-2.89l-0.25-0.35
				c-0.22-0.23-0.36-0.44-0.44-0.63c-0.08-0.19-0.12-0.38-0.12-0.57c0-0.26,0.06-0.5,0.19-0.71c0.13-0.21,0.31-0.38,0.56-0.5
				c0.25-0.12,0.55-0.18,0.9-0.18c0.37,0,0.64,0.06,0.81,0.18c0.17,0.12,0.25,0.27,0.25,0.46c0,0.09-0.02,0.18-0.06,0.26
				c-0.04,0.08-0.09,0.15-0.16,0.2c-0.09-0.04-0.19-0.08-0.31-0.11c-0.12-0.03-0.23-0.04-0.35-0.04c-0.21,0-0.38,0.05-0.5,0.15
				c-0.12,0.1-0.19,0.24-0.19,0.41c0,0.15,0.04,0.29,0.13,0.41c0.09,0.12,0.22,0.27,0.39,0.44l3.13,3.14
				c-0.01,0.19-0.08,0.33-0.19,0.45C91.5,191.35,91.36,191.4,91.19,191.4z"/>
			<path class="st0" d="M95.92,188.82H94.7v-3.38c0.06-0.01,0.14-0.03,0.24-0.05c0.11-0.02,0.21-0.03,0.32-0.03
				c0.23,0,0.4,0.04,0.5,0.12s0.15,0.23,0.15,0.45V188.82z M94.7,187.46h1.22v3.74l-0.57,0.08c-0.2,0-0.36-0.06-0.48-0.18
				c-0.12-0.12-0.18-0.27-0.18-0.47V187.46z M95.36,191.28v-1h3.05c0.04,0.05,0.07,0.12,0.1,0.2s0.04,0.18,0.04,0.28
				c0,0.17-0.04,0.3-0.12,0.39c-0.08,0.09-0.19,0.13-0.32,0.13H95.36z"/>
			<path class="st0" d="M100.79,188.82h-1.21v-3.38c0.05-0.01,0.13-0.03,0.24-0.05c0.11-0.02,0.22-0.03,0.33-0.03
				c0.22,0,0.39,0.04,0.49,0.12s0.15,0.23,0.15,0.45V188.82z M99.58,187.42h1.21v3.83c-0.05,0.02-0.13,0.04-0.23,0.05
				c-0.1,0.02-0.21,0.02-0.33,0.02c-0.23,0-0.4-0.04-0.5-0.13c-0.1-0.09-0.15-0.23-0.15-0.44V187.42z"/>
			<path class="st0" d="M107.23,189.56v-0.6v2.16c-0.08,0.06-0.18,0.12-0.31,0.16c-0.13,0.04-0.28,0.06-0.44,0.06
				c-0.2,0-0.38-0.03-0.53-0.1c-0.16-0.06-0.29-0.21-0.4-0.42l-1.41-2.52c-0.08-0.15-0.16-0.31-0.24-0.48
				c-0.09-0.17-0.17-0.33-0.24-0.49c-0.08-0.16-0.15-0.31-0.21-0.44l-1.15,0.27v-1.51c0.07-0.09,0.17-0.16,0.31-0.2
				s0.29-0.07,0.45-0.07c0.19,0,0.37,0.03,0.53,0.1c0.16,0.06,0.29,0.2,0.4,0.41l1.41,2.52c0.08,0.15,0.17,0.31,0.25,0.48
				c0.09,0.17,0.17,0.33,0.24,0.49c0.07,0.16,0.14,0.31,0.2,0.44L107.23,189.56z M102.29,186.74l1.08-0.03
				c0.03,0.24,0.05,0.5,0.06,0.77c0.02,0.27,0.03,0.53,0.03,0.8c0,0.26,0,0.51,0,0.76v2.23c-0.04,0.01-0.12,0.03-0.23,0.04
				c-0.11,0.02-0.21,0.02-0.31,0.02c-0.23,0-0.4-0.04-0.49-0.12c-0.1-0.08-0.15-0.22-0.15-0.43V186.74z M107.23,189.95l-1.09,0.03
				c-0.05-0.49-0.08-0.97-0.09-1.45c-0.01-0.47-0.01-0.93-0.01-1.37v-1.73c0.06-0.01,0.14-0.03,0.24-0.05
				c0.1-0.02,0.21-0.03,0.32-0.03c0.22,0,0.39,0.04,0.48,0.12c0.1,0.08,0.15,0.22,0.15,0.42V189.95z"/>
			<path class="st0" d="M109.9,189.29l-1.19-0.01v-3.2c0-0.2,0.06-0.36,0.18-0.47c0.12-0.12,0.28-0.17,0.48-0.17
				c0.11,0,0.21,0.01,0.32,0.03c0.1,0.02,0.18,0.04,0.22,0.05V189.29z M108.71,187.41h1.19v3.79c-0.04,0.01-0.12,0.03-0.22,0.05
				c-0.1,0.02-0.21,0.03-0.32,0.03c-0.2,0-0.36-0.06-0.48-0.18c-0.12-0.12-0.18-0.27-0.18-0.47V187.41z M109.36,186.42v-0.98h3.18
				c0.03,0.04,0.06,0.11,0.09,0.19c0.03,0.08,0.04,0.17,0.04,0.27c0,0.17-0.04,0.29-0.11,0.38s-0.18,0.13-0.32,0.13H109.36z
				 M109.36,188.77v-0.96h2.89c0.03,0.04,0.06,0.11,0.09,0.19s0.04,0.17,0.04,0.27c0,0.17-0.04,0.29-0.12,0.37
				c-0.08,0.08-0.18,0.12-0.32,0.12H109.36z M109.36,191.28v-0.97h3.23c0.03,0.04,0.05,0.11,0.08,0.19
				c0.03,0.08,0.04,0.18,0.04,0.28c0,0.17-0.04,0.29-0.12,0.37c-0.08,0.08-0.18,0.12-0.32,0.12H109.36z"/>
			<path class="st0" d="M118.83,189.56v-0.6v2.16c-0.08,0.06-0.18,0.12-0.31,0.16c-0.13,0.04-0.28,0.06-0.44,0.06
				c-0.2,0-0.38-0.03-0.53-0.1c-0.16-0.06-0.29-0.21-0.4-0.42l-1.41-2.52c-0.08-0.15-0.16-0.31-0.25-0.48
				c-0.09-0.17-0.17-0.33-0.24-0.49c-0.08-0.16-0.15-0.31-0.21-0.44l-1.15,0.27v-1.51c0.07-0.09,0.17-0.16,0.31-0.2
				s0.29-0.07,0.45-0.07c0.19,0,0.37,0.03,0.53,0.1c0.16,0.06,0.29,0.2,0.4,0.41l1.41,2.52c0.08,0.15,0.17,0.31,0.25,0.48
				c0.09,0.17,0.17,0.33,0.24,0.49c0.07,0.16,0.14,0.31,0.2,0.44L118.83,189.56z M113.89,186.74l1.09-0.03
				c0.03,0.24,0.05,0.5,0.06,0.77c0.02,0.27,0.03,0.53,0.03,0.8s0,0.51,0,0.76v2.23c-0.04,0.01-0.12,0.03-0.23,0.04
				c-0.11,0.02-0.21,0.02-0.31,0.02c-0.23,0-0.39-0.04-0.49-0.12s-0.15-0.22-0.15-0.43V186.74z M118.83,189.95l-1.1,0.03
				c-0.05-0.49-0.08-0.97-0.09-1.45c-0.01-0.47-0.01-0.93-0.01-1.37v-1.73c0.06-0.01,0.14-0.03,0.24-0.05
				c0.1-0.02,0.21-0.03,0.32-0.03c0.22,0,0.39,0.04,0.48,0.12c0.1,0.08,0.15,0.22,0.15,0.42V189.95z"/>
			<path class="st0" d="M126.64,186.18c0,0.12-0.03,0.23-0.1,0.32s-0.15,0.17-0.24,0.22c-0.16-0.11-0.35-0.21-0.56-0.3
				c-0.21-0.09-0.47-0.13-0.78-0.13c-0.36,0-0.67,0.08-0.95,0.24c-0.27,0.16-0.48,0.39-0.63,0.7c-0.15,0.31-0.23,0.69-0.23,1.14
				c0,0.68,0.17,1.19,0.51,1.54c0.34,0.35,0.79,0.52,1.35,0.52c0.3,0,0.56-0.04,0.78-0.12c0.22-0.08,0.41-0.18,0.57-0.29
				c0.08,0.05,0.16,0.13,0.22,0.23c0.06,0.1,0.09,0.21,0.09,0.33c0,0.11-0.03,0.21-0.08,0.3c-0.05,0.09-0.15,0.17-0.28,0.24
				c-0.13,0.08-0.32,0.15-0.55,0.21c-0.23,0.06-0.53,0.1-0.88,0.1c-0.55,0-1.05-0.11-1.5-0.33c-0.45-0.22-0.81-0.56-1.07-1.01
				c-0.26-0.45-0.39-1.02-0.39-1.71c0-0.67,0.13-1.23,0.39-1.69c0.26-0.45,0.62-0.8,1.06-1.03c0.44-0.23,0.92-0.35,1.45-0.35
				c0.37,0,0.69,0.04,0.96,0.12c0.27,0.08,0.48,0.19,0.63,0.33C126.57,185.87,126.64,186.02,126.64,186.18z"/>
			<path class="st0" d="M129.01,188.82h-1.22v-3.38c0.06-0.01,0.14-0.03,0.25-0.05c0.11-0.02,0.21-0.03,0.32-0.03
				c0.23,0,0.4,0.04,0.5,0.12s0.15,0.23,0.15,0.45V188.82z M127.79,187.43h1.22v3.82c-0.05,0.02-0.13,0.04-0.23,0.05
				c-0.11,0.02-0.22,0.02-0.33,0.02c-0.23,0-0.4-0.04-0.5-0.13c-0.1-0.09-0.15-0.23-0.15-0.44V187.43z M132.13,188.82h-3.74v-0.97
				h3.74V188.82z M132.67,188.82h-1.21v-3.38c0.05-0.01,0.13-0.03,0.24-0.05c0.11-0.02,0.21-0.03,0.32-0.03
				c0.23,0,0.4,0.04,0.5,0.12c0.1,0.08,0.15,0.23,0.15,0.45V188.82z M131.46,187.43h1.21v3.82c-0.05,0.02-0.13,0.04-0.24,0.05
				c-0.11,0.02-0.21,0.02-0.32,0.02c-0.24,0-0.41-0.04-0.5-0.13c-0.1-0.09-0.15-0.23-0.15-0.44V187.43z"/>
			<path class="st0" d="M135.36,188.84h-1.21v-3.4c0.05-0.01,0.13-0.03,0.24-0.05c0.11-0.02,0.21-0.03,0.32-0.03
				c0.23,0,0.4,0.04,0.5,0.12c0.1,0.08,0.15,0.23,0.15,0.45V188.84z M136.57,191.41c-0.5,0-0.94-0.09-1.31-0.27
				c-0.36-0.18-0.64-0.44-0.83-0.77s-0.28-0.72-0.28-1.17v-0.69h1.21v0.64c0,0.41,0.11,0.73,0.34,0.95
				c0.23,0.22,0.52,0.33,0.87,0.33c0.35,0,0.63-0.11,0.86-0.33s0.35-0.54,0.35-0.95v-0.64H139v0.69c0,0.45-0.1,0.84-0.29,1.17
				c-0.19,0.33-0.47,0.59-0.83,0.77C137.52,191.32,137.08,191.41,136.57,191.41z M139,188.85h-1.22v-3.41
				c0.05-0.01,0.13-0.03,0.24-0.05c0.11-0.02,0.22-0.03,0.33-0.03c0.22,0,0.39,0.04,0.49,0.12s0.16,0.23,0.16,0.45V188.85z"/>
			<path class="st0" d="M142.73,185.44l0.02,0.99h-2.7c-0.03-0.05-0.06-0.12-0.09-0.2c-0.03-0.08-0.04-0.18-0.04-0.28
				c0-0.17,0.04-0.3,0.12-0.38c0.08-0.08,0.18-0.12,0.32-0.12H142.73z M141.69,186.17h1.21v5.08c-0.05,0.02-0.13,0.04-0.24,0.05
				c-0.11,0.02-0.21,0.02-0.32,0.02c-0.24,0-0.41-0.04-0.5-0.13c-0.1-0.09-0.15-0.23-0.15-0.44V186.17z M141.88,186.43l-0.03-0.99
				h2.7c0.03,0.04,0.06,0.11,0.09,0.2c0.03,0.09,0.04,0.18,0.04,0.27c0,0.17-0.04,0.29-0.12,0.38c-0.08,0.09-0.18,0.13-0.32,0.13
				H141.88z"/>
			<path class="st0" d="M146.82,189.29l-1.19-0.01v-3.2c0-0.2,0.06-0.36,0.18-0.47c0.12-0.12,0.28-0.17,0.47-0.17
				c0.11,0,0.21,0.01,0.32,0.03c0.1,0.02,0.18,0.04,0.22,0.05V189.29z M145.63,187.41h1.19v3.79c-0.04,0.01-0.12,0.03-0.22,0.05
				c-0.1,0.02-0.21,0.03-0.32,0.03c-0.2,0-0.36-0.06-0.47-0.18c-0.12-0.12-0.18-0.27-0.18-0.47V187.41z M146.28,186.42v-0.98h3.18
				c0.03,0.04,0.06,0.11,0.09,0.19c0.03,0.08,0.04,0.17,0.04,0.27c0,0.17-0.04,0.29-0.11,0.38s-0.18,0.13-0.32,0.13H146.28z
				 M146.28,188.77v-0.96h2.89c0.03,0.04,0.06,0.11,0.09,0.19c0.03,0.08,0.04,0.17,0.04,0.27c0,0.17-0.04,0.29-0.12,0.37
				c-0.08,0.08-0.18,0.12-0.32,0.12H146.28z M146.28,191.28v-0.97h3.23c0.03,0.04,0.05,0.11,0.08,0.19
				c0.03,0.08,0.04,0.18,0.04,0.28c0,0.17-0.04,0.29-0.12,0.37c-0.08,0.08-0.18,0.12-0.32,0.12H146.28z"/>
			<path class="st0" d="M156.39,189.79c-0.06,0.05-0.15,0.09-0.25,0.13c-0.1,0.04-0.22,0.05-0.35,0.05c-0.17,0-0.31-0.02-0.42-0.07
				s-0.19-0.12-0.23-0.23c-0.26-0.64-0.49-1.2-0.68-1.67s-0.34-0.88-0.45-1.21h-0.04c-0.02,0.43-0.04,0.83-0.06,1.19
				c-0.02,0.37-0.04,0.72-0.05,1.06c-0.01,0.34-0.03,0.69-0.04,1.05c-0.02,0.35-0.04,0.74-0.06,1.16c-0.06,0.02-0.14,0.04-0.24,0.06
				c-0.1,0.02-0.2,0.03-0.3,0.03c-0.21,0-0.36-0.04-0.47-0.11c-0.11-0.07-0.16-0.19-0.16-0.36c0-0.12,0.01-0.32,0.02-0.6
				c0.02-0.28,0.04-0.61,0.06-0.98s0.05-0.78,0.07-1.2s0.05-0.83,0.09-1.25c0.03-0.41,0.06-0.79,0.09-1.14
				c0.05-0.06,0.14-0.13,0.27-0.2s0.31-0.1,0.52-0.1c0.24,0,0.43,0.04,0.58,0.12c0.15,0.08,0.26,0.21,0.33,0.38
				c0.12,0.27,0.25,0.57,0.38,0.9c0.13,0.33,0.26,0.67,0.38,1c0.12,0.34,0.24,0.65,0.35,0.94h0.05c0.22-0.61,0.44-1.2,0.66-1.77
				c0.22-0.57,0.41-1.05,0.57-1.44c0.08-0.04,0.17-0.08,0.29-0.11c0.12-0.03,0.24-0.04,0.37-0.04c0.22,0,0.41,0.04,0.55,0.11
				c0.14,0.07,0.23,0.18,0.26,0.32c0.03,0.12,0.05,0.3,0.08,0.57c0.03,0.26,0.06,0.57,0.09,0.92s0.06,0.71,0.1,1.09
				s0.06,0.75,0.09,1.11c0.03,0.36,0.05,0.69,0.07,0.98c0.02,0.29,0.04,0.52,0.04,0.7c-0.08,0.05-0.17,0.09-0.26,0.11
				s-0.2,0.03-0.34,0.03c-0.17,0-0.31-0.03-0.43-0.1c-0.12-0.06-0.18-0.19-0.2-0.38c-0.03-0.54-0.06-1.07-0.09-1.58
				c-0.03-0.51-0.05-0.97-0.06-1.4c-0.02-0.42-0.03-0.78-0.04-1.07h-0.05c-0.1,0.3-0.25,0.69-0.43,1.16S156.67,189.05,156.39,189.79
				z"/>
			<path class="st0" d="M162.52,186.43h-0.05c-0.08,0.23-0.17,0.49-0.27,0.79c-0.1,0.29-0.2,0.6-0.31,0.92
				c-0.11,0.32-0.21,0.62-0.31,0.92l-0.13,0.6c-0.04,0.12-0.08,0.26-0.12,0.4c-0.04,0.15-0.09,0.3-0.13,0.45s-0.09,0.29-0.13,0.43
				c-0.04,0.13-0.08,0.25-0.11,0.36c-0.06,0.02-0.13,0.04-0.21,0.05c-0.07,0.02-0.16,0.02-0.26,0.02c-0.21,0-0.37-0.04-0.49-0.12
				c-0.12-0.08-0.18-0.2-0.18-0.36c0-0.07,0.01-0.14,0.03-0.22c0.02-0.08,0.05-0.16,0.07-0.26c0.06-0.21,0.15-0.47,0.26-0.79
				c0.11-0.32,0.23-0.66,0.36-1.03s0.26-0.75,0.4-1.12c0.14-0.38,0.27-0.73,0.39-1.06c0.12-0.33,0.23-0.61,0.32-0.83
				c0.08-0.04,0.2-0.09,0.36-0.12s0.32-0.06,0.49-0.06c0.22,0,0.42,0.03,0.6,0.1c0.18,0.06,0.3,0.17,0.34,0.31
				c0.13,0.35,0.28,0.75,0.43,1.21c0.15,0.45,0.31,0.93,0.47,1.42c0.16,0.49,0.31,0.97,0.46,1.44c0.15,0.47,0.28,0.89,0.39,1.27
				c-0.06,0.07-0.15,0.13-0.26,0.17c-0.11,0.04-0.24,0.07-0.39,0.07c-0.21,0-0.36-0.04-0.46-0.12c-0.09-0.08-0.17-0.2-0.22-0.37
				l-0.39-1.26l-0.12-0.61c-0.1-0.33-0.2-0.65-0.3-0.96c-0.1-0.32-0.19-0.61-0.28-0.89C162.66,186.87,162.58,186.63,162.52,186.43z
				 M160.91,189.88l0.45-0.95h2.4l0.18,0.95H160.91z"/>
			<path class="st0" d="M167.36,188.82h-1.21v-3.38c0.05-0.01,0.13-0.03,0.24-0.05c0.11-0.02,0.22-0.03,0.33-0.03
				c0.22,0,0.39,0.04,0.49,0.12s0.15,0.23,0.15,0.45V188.82z M166.15,187.42h1.21v3.83c-0.05,0.02-0.13,0.04-0.23,0.05
				c-0.1,0.02-0.21,0.02-0.33,0.02c-0.23,0-0.4-0.04-0.5-0.13c-0.1-0.09-0.15-0.23-0.15-0.44V187.42z"/>
			<path class="st0" d="M173.8,189.56v-0.6v2.16c-0.08,0.06-0.18,0.12-0.31,0.16c-0.13,0.04-0.28,0.06-0.44,0.06
				c-0.2,0-0.38-0.03-0.53-0.1c-0.16-0.06-0.29-0.21-0.4-0.42l-1.41-2.52c-0.08-0.15-0.16-0.31-0.24-0.48
				c-0.09-0.17-0.17-0.33-0.25-0.49s-0.15-0.31-0.21-0.44l-1.15,0.27v-1.51c0.07-0.09,0.17-0.16,0.31-0.2s0.29-0.07,0.45-0.07
				c0.19,0,0.37,0.03,0.53,0.1c0.16,0.06,0.29,0.2,0.4,0.41l1.41,2.52c0.08,0.15,0.17,0.31,0.25,0.48c0.09,0.17,0.17,0.33,0.24,0.49
				c0.07,0.16,0.14,0.31,0.2,0.44L173.8,189.56z M168.85,186.74l1.08-0.03c0.03,0.24,0.05,0.5,0.06,0.77
				c0.02,0.27,0.03,0.53,0.03,0.8s0,0.51,0,0.76v2.23c-0.04,0.01-0.12,0.03-0.23,0.04c-0.11,0.02-0.21,0.02-0.31,0.02
				c-0.23,0-0.4-0.04-0.5-0.12c-0.1-0.08-0.15-0.22-0.15-0.43V186.74z M173.8,189.95l-1.09,0.03c-0.05-0.49-0.08-0.97-0.09-1.45
				c-0.01-0.47-0.01-0.93-0.01-1.37v-1.73c0.06-0.01,0.14-0.03,0.24-0.05c0.1-0.02,0.21-0.03,0.32-0.03c0.22,0,0.39,0.04,0.48,0.12
				c0.1,0.08,0.15,0.22,0.15,0.42V189.95z"/>
			<path class="st0" d="M177.55,185.44l0.02,0.99h-2.7c-0.03-0.05-0.06-0.12-0.09-0.2c-0.03-0.08-0.04-0.18-0.04-0.28
				c0-0.17,0.04-0.3,0.12-0.38c0.08-0.08,0.18-0.12,0.32-0.12H177.55z M176.5,186.17h1.21v5.08c-0.05,0.02-0.13,0.04-0.24,0.05
				c-0.11,0.02-0.21,0.02-0.32,0.02c-0.24,0-0.41-0.04-0.5-0.13c-0.1-0.09-0.15-0.23-0.15-0.44V186.17z M176.7,186.43l-0.03-0.99
				h2.7c0.03,0.04,0.06,0.11,0.09,0.2c0.03,0.09,0.04,0.18,0.04,0.27c0,0.17-0.04,0.29-0.12,0.38c-0.08,0.09-0.18,0.13-0.32,0.13
				H176.7z"/>
			<path class="st0" d="M181.64,189.29l-1.19-0.01v-3.2c0-0.2,0.06-0.36,0.18-0.47c0.12-0.12,0.28-0.17,0.47-0.17
				c0.11,0,0.21,0.01,0.32,0.03c0.1,0.02,0.18,0.04,0.22,0.05V189.29z M180.45,187.41h1.19v3.79c-0.04,0.01-0.12,0.03-0.22,0.05
				c-0.1,0.02-0.21,0.03-0.32,0.03c-0.2,0-0.36-0.06-0.47-0.18c-0.12-0.12-0.18-0.27-0.18-0.47V187.41z M181.1,186.42v-0.98h3.18
				c0.03,0.04,0.06,0.11,0.09,0.19c0.03,0.08,0.04,0.17,0.04,0.27c0,0.17-0.04,0.29-0.11,0.38s-0.18,0.13-0.32,0.13H181.1z
				 M181.1,188.77v-0.96h2.89c0.03,0.04,0.06,0.11,0.09,0.19c0.03,0.08,0.04,0.17,0.04,0.27c0,0.17-0.04,0.29-0.12,0.37
				c-0.08,0.08-0.18,0.12-0.32,0.12H181.1z M181.1,191.28v-0.97h3.23c0.03,0.04,0.05,0.11,0.08,0.19c0.03,0.08,0.04,0.18,0.04,0.28
				c0,0.17-0.04,0.29-0.12,0.37c-0.08,0.08-0.18,0.12-0.32,0.12H181.1z"/>
			<path class="st0" d="M190.57,189.56v-0.6v2.16c-0.08,0.06-0.18,0.12-0.31,0.16c-0.13,0.04-0.28,0.06-0.44,0.06
				c-0.2,0-0.38-0.03-0.53-0.1c-0.16-0.06-0.29-0.21-0.4-0.42l-1.41-2.52c-0.08-0.15-0.16-0.31-0.24-0.48
				c-0.09-0.17-0.17-0.33-0.25-0.49s-0.15-0.31-0.21-0.44l-1.15,0.27v-1.51c0.07-0.09,0.17-0.16,0.31-0.2s0.29-0.07,0.45-0.07
				c0.19,0,0.37,0.03,0.53,0.1c0.16,0.06,0.29,0.2,0.4,0.41l1.41,2.52c0.08,0.15,0.17,0.31,0.25,0.48c0.09,0.17,0.17,0.33,0.24,0.49
				c0.07,0.16,0.14,0.31,0.2,0.44L190.57,189.56z M185.62,186.74l1.08-0.03c0.03,0.24,0.05,0.5,0.06,0.77
				c0.02,0.27,0.03,0.53,0.03,0.8s0,0.51,0,0.76v2.23c-0.04,0.01-0.12,0.03-0.23,0.04c-0.11,0.02-0.21,0.02-0.31,0.02
				c-0.23,0-0.4-0.04-0.5-0.12c-0.1-0.08-0.15-0.22-0.15-0.43V186.74z M190.57,189.95l-1.09,0.03c-0.05-0.49-0.08-0.97-0.09-1.45
				c-0.01-0.47-0.01-0.93-0.01-1.37v-1.73c0.06-0.01,0.14-0.03,0.24-0.05c0.1-0.02,0.21-0.03,0.32-0.03c0.22,0,0.39,0.04,0.48,0.12
				c0.1,0.08,0.15,0.22,0.15,0.42V189.95z"/>
			<path class="st0" d="M194.28,186.43h-0.05c-0.08,0.23-0.17,0.49-0.27,0.79c-0.1,0.29-0.2,0.6-0.31,0.92
				c-0.11,0.32-0.21,0.62-0.31,0.92l-0.13,0.6c-0.04,0.12-0.08,0.26-0.12,0.4c-0.04,0.15-0.09,0.3-0.13,0.45s-0.09,0.29-0.13,0.43
				c-0.04,0.13-0.08,0.25-0.11,0.36c-0.06,0.02-0.13,0.04-0.21,0.05c-0.07,0.02-0.16,0.02-0.26,0.02c-0.21,0-0.37-0.04-0.49-0.12
				c-0.12-0.08-0.18-0.2-0.18-0.36c0-0.07,0.01-0.14,0.03-0.22c0.02-0.08,0.05-0.16,0.07-0.26c0.06-0.21,0.15-0.47,0.26-0.79
				c0.11-0.32,0.23-0.66,0.36-1.03s0.26-0.75,0.4-1.12c0.14-0.38,0.27-0.73,0.39-1.06c0.12-0.33,0.23-0.61,0.32-0.83
				c0.08-0.04,0.2-0.09,0.36-0.12s0.32-0.06,0.49-0.06c0.22,0,0.42,0.03,0.6,0.1c0.18,0.06,0.3,0.17,0.34,0.31
				c0.13,0.35,0.28,0.75,0.43,1.21c0.15,0.45,0.31,0.93,0.47,1.42c0.16,0.49,0.31,0.97,0.46,1.44c0.15,0.47,0.28,0.89,0.39,1.27
				c-0.06,0.07-0.15,0.13-0.26,0.17c-0.11,0.04-0.24,0.07-0.39,0.07c-0.21,0-0.36-0.04-0.46-0.12c-0.09-0.08-0.17-0.2-0.22-0.37
				l-0.39-1.26l-0.12-0.61c-0.1-0.33-0.2-0.65-0.3-0.96c-0.1-0.32-0.19-0.61-0.28-0.89C194.42,186.87,194.34,186.63,194.28,186.43z
				 M192.66,189.88l0.45-0.95h2.4l0.18,0.95H192.66z"/>
			<path class="st0" d="M202.84,189.56v-0.6v2.16c-0.08,0.06-0.18,0.12-0.31,0.16c-0.13,0.04-0.28,0.06-0.44,0.06
				c-0.2,0-0.38-0.03-0.53-0.1c-0.16-0.06-0.29-0.21-0.4-0.42l-1.41-2.52c-0.08-0.15-0.16-0.31-0.24-0.48
				c-0.09-0.17-0.17-0.33-0.25-0.49s-0.15-0.31-0.21-0.44l-1.15,0.27v-1.51c0.07-0.09,0.17-0.16,0.31-0.2s0.29-0.07,0.45-0.07
				c0.19,0,0.37,0.03,0.53,0.1c0.16,0.06,0.29,0.2,0.4,0.41l1.41,2.52c0.08,0.15,0.17,0.31,0.25,0.48c0.09,0.17,0.17,0.33,0.24,0.49
				c0.07,0.16,0.14,0.31,0.2,0.44L202.84,189.56z M197.89,186.74l1.08-0.03c0.03,0.24,0.05,0.5,0.06,0.77
				c0.02,0.27,0.03,0.53,0.03,0.8s0,0.51,0,0.76v2.23c-0.04,0.01-0.12,0.03-0.23,0.04c-0.11,0.02-0.21,0.02-0.31,0.02
				c-0.23,0-0.4-0.04-0.5-0.12c-0.1-0.08-0.15-0.22-0.15-0.43V186.74z M202.84,189.95l-1.09,0.03c-0.05-0.49-0.08-0.97-0.09-1.45
				c-0.01-0.47-0.01-0.93-0.01-1.37v-1.73c0.06-0.01,0.14-0.03,0.24-0.05c0.1-0.02,0.21-0.03,0.32-0.03c0.22,0,0.39,0.04,0.48,0.12
				c0.1,0.08,0.15,0.22,0.15,0.42V189.95z"/>
			<path class="st0" d="M208.73,186.18c0,0.12-0.03,0.23-0.1,0.32s-0.15,0.17-0.24,0.22c-0.16-0.11-0.35-0.21-0.56-0.3
				c-0.21-0.09-0.47-0.13-0.78-0.13c-0.36,0-0.67,0.08-0.95,0.24c-0.27,0.16-0.48,0.39-0.63,0.7c-0.15,0.31-0.23,0.69-0.23,1.14
				c0,0.68,0.17,1.19,0.51,1.54c0.34,0.35,0.79,0.52,1.35,0.52c0.3,0,0.56-0.04,0.78-0.12c0.22-0.08,0.41-0.18,0.57-0.29
				c0.08,0.05,0.16,0.13,0.22,0.23c0.06,0.1,0.09,0.21,0.09,0.33c0,0.11-0.03,0.21-0.08,0.3c-0.05,0.09-0.15,0.17-0.28,0.24
				c-0.13,0.08-0.32,0.15-0.55,0.21c-0.23,0.06-0.53,0.1-0.88,0.1c-0.55,0-1.05-0.11-1.5-0.33c-0.45-0.22-0.81-0.56-1.07-1.01
				c-0.26-0.45-0.39-1.02-0.39-1.71c0-0.67,0.13-1.23,0.39-1.69c0.26-0.45,0.62-0.8,1.06-1.03c0.44-0.23,0.92-0.35,1.45-0.35
				c0.37,0,0.69,0.04,0.96,0.12c0.27,0.08,0.48,0.19,0.63,0.33C208.66,185.87,208.73,186.02,208.73,186.18z"/>
			<path class="st0" d="M211.08,189.29l-1.19-0.01v-3.2c0-0.2,0.06-0.36,0.18-0.47c0.12-0.12,0.28-0.17,0.47-0.17
				c0.11,0,0.21,0.01,0.32,0.03c0.1,0.02,0.18,0.04,0.22,0.05V189.29z M209.88,187.41h1.19v3.79c-0.04,0.01-0.12,0.03-0.22,0.05
				c-0.1,0.02-0.21,0.03-0.32,0.03c-0.2,0-0.36-0.06-0.47-0.18c-0.12-0.12-0.18-0.27-0.18-0.47V187.41z M210.54,186.42v-0.98h3.18
				c0.03,0.04,0.06,0.11,0.09,0.19c0.03,0.08,0.04,0.17,0.04,0.27c0,0.17-0.04,0.29-0.11,0.38s-0.18,0.13-0.32,0.13H210.54z
				 M210.54,188.77v-0.96h2.89c0.03,0.04,0.06,0.11,0.09,0.19c0.03,0.08,0.04,0.17,0.04,0.27c0,0.17-0.04,0.29-0.12,0.37
				c-0.08,0.08-0.18,0.12-0.32,0.12H210.54z M210.54,191.28v-0.97h3.23c0.03,0.04,0.05,0.11,0.08,0.19
				c0.03,0.08,0.04,0.18,0.04,0.28c0,0.17-0.04,0.29-0.12,0.37c-0.08,0.08-0.18,0.12-0.32,0.12H210.54z"/>
		</g>
	</g>
</g>
</svg>
